<?xml version="1.0" encoding="utf-8"?>
<!-- Generator: Adobe Illustrator 16.0.0, SVG Export Plug-In . SVG Version: 6.00 Build 0)  -->
<!DOCTYPE svg PUBLIC "-//W3C//DTD SVG 1.1//EN" "http://www.w3.org/Graphics/SVG/1.1/DTD/svg11.dtd">
<svg version="1.1" id="レイヤー_1" xmlns="http://www.w3.org/2000/svg" xmlns:xlink="http://www.w3.org/1999/xlink" x="0px"
	 y="0px" width="324.021px" height="39.663px" viewBox="0 0 324.021 39.663" enable-background="new 0 0 324.021 39.663"
	 xml:space="preserve">
<g>
	<path fill="#FFFFFF" stroke="#808080" stroke-miterlimit="10" d="M15.298,5.913c-0.792-0.504-2.52-1.26-4.823-1.26
		c-3.815,0-5.255,2.339-5.255,4.319c0,2.7,1.656,4.067,5.328,5.615c4.427,1.872,6.695,4.14,6.695,8.063
		c0,4.355-3.167,7.702-9.071,7.702c-2.483,0-5.183-0.756-6.551-1.728l0.828-2.483c1.476,0.972,3.671,1.691,5.903,1.691
		c3.671,0,5.831-1.979,5.831-4.931c0-2.7-1.476-4.355-5.039-5.796c-4.14-1.548-6.947-3.959-6.947-7.739
		c0-4.175,3.383-7.235,8.387-7.235c2.592,0,4.572,0.648,5.615,1.296L15.298,5.913z"/>
	<path fill="#FFFFFF" stroke="#808080" stroke-miterlimit="10" d="M34.774,25.278c0,1.62,0.036,3.312,0.288,4.68h-2.735l-0.288-2.52
		H31.93c-1.008,1.548-3.024,2.951-5.795,2.951c-3.744,0-5.723-2.735-5.723-5.579c0-4.716,4.104-7.271,11.375-7.235
		c0-1.656,0-5.399-4.463-5.399c-1.692,0-3.456,0.468-4.788,1.404l-0.72-2.052c1.583-1.044,3.779-1.656,5.975-1.656
		c5.543,0,6.983,3.923,6.983,7.811V25.278z M31.822,19.771c-3.708,0-8.351,0.54-8.351,4.679c0,2.521,1.583,3.636,3.383,3.636
		c2.916,0,4.968-2.231,4.968-4.606V19.771z"/>
	<path fill="#FFFFFF" stroke="#808080" stroke-miterlimit="10" d="M67.244,29.958h-2.952V18.62c0-3.816-1.368-6.264-4.319-6.264
		c-2.412,0-4.607,2.268-4.607,5.255v12.347h-2.952V17.863c0-3.131-1.332-5.507-4.104-5.507c-2.556,0-4.823,2.52-4.823,5.579v12.022
		h-2.952V15.379c0-2.016-0.072-3.456-0.144-5.075h2.628l0.18,3.167h0.108c1.08-1.908,2.88-3.6,5.976-3.6
		c2.556,0,4.535,1.584,5.363,3.923h0.072c1.296-2.339,3.276-3.923,6.299-3.923c2.412,0,6.227,1.548,6.227,8.279V29.958z"/>
	<path fill="#FFFFFF" stroke="#808080" stroke-miterlimit="10" d="M75.851,13.651c1.368-2.412,3.636-3.779,6.695-3.779
		c4.643,0,7.991,3.996,7.991,10.007c0,7.198-4.211,10.51-8.531,10.51c-2.592,0-4.751-1.188-5.903-3.131h-0.072v10.727h-2.988V16.639
		c0-2.556-0.072-4.535-0.144-6.335h2.7l0.18,3.347H75.851z M76.031,22.147c0,3.814,2.843,5.831,5.507,5.831
		c3.851,0,5.975-3.312,5.975-7.991c0-4.067-2.052-7.667-5.867-7.667c-3.348,0-5.615,3.239-5.615,6.083V22.147z"/>
	<path fill="#FFFFFF" stroke="#808080" stroke-miterlimit="10" d="M98.026,29.958h-2.988V1.161h2.988V29.958z"/>
	<path fill="#FFFFFF" stroke="#808080" stroke-miterlimit="10" d="M117.86,29.129c-1.116,0.54-3.167,1.224-6.155,1.224
		c-5.723,0-9.143-4.031-9.143-9.898c0-6.155,3.456-10.583,8.747-10.583c6.047,0,7.595,5.543,7.595,8.962
		c0,0.685-0.036,1.188-0.072,1.656h-13.354c0.036,5.436,3.132,7.487,6.659,7.487c2.448,0,3.923-0.504,5.147-1.008L117.86,29.129z
		 M115.953,18.258c0.036-2.663-1.08-6.119-4.931-6.119c-3.6,0-5.184,3.419-5.471,6.119H115.953z"/>
	<path fill="#FFFFFF" stroke="#808080" stroke-miterlimit="10" d="M140.937,13.328c-0.721-0.468-2.052-1.152-3.815-1.152
		c-2.16,0-3.312,1.332-3.312,2.916c0,1.692,1.116,2.484,3.636,3.563c3.168,1.296,5.004,2.951,5.004,5.903
		c0,3.491-2.664,5.795-6.947,5.795c-1.944,0-3.815-0.539-5.147-1.331l0.828-2.304c1.044,0.611,2.735,1.331,4.427,1.331
		c2.628,0,3.924-1.403,3.924-3.167c0-1.836-1.044-2.844-3.636-3.888c-3.312-1.332-5.003-3.167-5.003-5.543
		c0-3.06,2.447-5.579,6.407-5.579c1.872,0,3.455,0.54,4.499,1.188L140.937,13.328z"/>
	<path fill="#FFFFFF" stroke="#808080" stroke-miterlimit="10" d="M148.497,6.884c-1.152,0-1.944-0.9-1.944-2.052
		c0-1.116,0.828-2.016,1.98-2.016c1.188,0,1.943,0.9,1.943,2.016C150.477,6.092,149.648,6.884,148.497,6.884z M150.009,29.958
		h-2.988V10.34h2.988V29.958z"/>
	<path fill="#FFFFFF" stroke="#808080" stroke-miterlimit="10" d="M156.74,6.776l2.952-1.008v4.571h5.075v2.34h-5.075v11.338
		c0,2.484,0.756,3.852,2.663,3.852c0.9,0,1.513-0.107,2.017-0.288l0.18,2.304c-0.648,0.288-1.656,0.468-2.916,0.468
		c-4.751,0-4.896-4.319-4.896-6.407V12.68h-3.023v-2.34h3.023V6.776z"/>
	<path fill="#FFFFFF" stroke="#808080" stroke-miterlimit="10" d="M182.586,29.129c-1.115,0.54-3.167,1.224-6.155,1.224
		c-5.723,0-9.143-4.031-9.143-9.898c0-6.155,3.455-10.583,8.747-10.583c6.047,0,7.595,5.543,7.595,8.962
		c0,0.685-0.036,1.188-0.072,1.656h-13.354c0.035,5.436,3.131,7.487,6.659,7.487c2.447,0,3.923-0.504,5.146-1.008L182.586,29.129z
		 M180.679,18.258c0.035-2.663-1.08-6.119-4.932-6.119c-3.6,0-5.184,3.419-5.472,6.119H180.679z"/>
	<path fill="#FFFFFF" stroke="#808080" stroke-miterlimit="10" d="M196.591,2.889c2.016-0.324,4.355-0.576,6.911-0.576
		c11.015,0,14.183,6.515,14.183,13.246c0,4.355-1.152,8.063-3.744,10.763c-2.411,2.484-6.407,3.852-11.41,3.852
		c-2.268,0-4.212-0.072-5.939-0.288V2.889z M199.578,27.582c0.9,0.145,2.196,0.181,3.492,0.181c7.415,0,11.482-4.212,11.482-12.059
		c0-7.127-3.815-10.979-10.942-10.979c-1.729,0-3.096,0.18-4.032,0.36V27.582z"/>
	<path fill="#FFFFFF" stroke="#808080" stroke-miterlimit="10" d="M236.009,29.129c-1.115,0.54-3.167,1.224-6.155,1.224
		c-5.723,0-9.143-4.031-9.143-9.898c0-6.155,3.455-10.583,8.747-10.583c6.047,0,7.595,5.543,7.595,8.962
		c0,0.685-0.036,1.188-0.072,1.656h-13.354c0.035,5.436,3.131,7.487,6.659,7.487c2.447,0,3.923-0.504,5.146-1.008L236.009,29.129z
		 M234.102,18.258c0.036-2.663-1.08-6.119-4.932-6.119c-3.6,0-5.184,3.419-5.472,6.119H234.102z"/>
	<path fill="#FFFFFF" stroke="#808080" stroke-miterlimit="10" d="M250.697,13.328c-0.721-0.468-2.052-1.152-3.815-1.152
		c-2.16,0-3.312,1.332-3.312,2.916c0,1.692,1.116,2.484,3.636,3.563c3.168,1.296,5.004,2.951,5.004,5.903
		c0,3.491-2.664,5.795-6.947,5.795c-1.944,0-3.815-0.539-5.147-1.331l0.828-2.304c1.044,0.611,2.735,1.331,4.427,1.331
		c2.628,0,3.924-1.403,3.924-3.167c0-1.836-1.044-2.844-3.636-3.888c-3.312-1.332-5.003-3.167-5.003-5.543
		c0-3.06,2.447-5.579,6.407-5.579c1.871,0,3.455,0.54,4.499,1.188L250.697,13.328z"/>
	<path fill="#FFFFFF" stroke="#808080" stroke-miterlimit="10" d="M258.258,6.884c-1.152,0-1.944-0.9-1.944-2.052
		c0-1.116,0.828-2.016,1.98-2.016c1.188,0,1.943,0.9,1.943,2.016C260.237,6.092,259.409,6.884,258.258,6.884z M259.77,29.958h-2.988
		V10.34h2.988V29.958z"/>
	<path fill="#FFFFFF" stroke="#808080" stroke-miterlimit="10" d="M281.655,10.304c-0.107,1.404-0.18,2.987-0.18,5.399V27.15
		c0,3.42-0.072,11.267-9.359,11.267c-2.231,0-4.679-0.54-6.155-1.548l0.792-2.34c1.26,0.756,3.168,1.476,5.508,1.476
		c3.6,0,6.228-1.907,6.228-7.091v-2.34h-0.072c-1.008,1.836-3.096,3.348-6.083,3.348c-4.68,0-8.027-4.14-8.027-9.646
		c0-6.803,4.247-10.403,8.495-10.403c3.348,0,5.111,1.8,5.939,3.383h0.071l0.145-2.951H281.655z M278.452,17.863
		c0-3.419-2.484-5.579-5.22-5.579c-3.455,0-5.867,3.06-5.867,7.811c0,4.176,2.016,7.451,5.831,7.451
		c2.232,0,5.256-1.691,5.256-5.759V17.863z"/>
	<path fill="#FFFFFF" stroke="#808080" stroke-miterlimit="10" d="M303.075,29.958h-2.987v-11.59c0-3.204-1.152-6.012-4.571-6.012
		c-2.556,0-5.147,2.16-5.147,5.579v12.022h-2.988V15.379c0-2.016-0.071-3.492-0.144-5.075h2.664l0.18,3.204h0.072
		c0.972-1.908,3.239-3.636,6.299-3.636c2.447,0,6.623,1.476,6.623,8.135V29.958z"/>
	<path fill="#FFFFFF" stroke="#808080" stroke-miterlimit="10" d="M308.045,28.122c0-1.367,0.899-2.34,2.159-2.34
		s2.124,0.973,2.124,2.34c0,1.296-0.828,2.268-2.16,2.268C308.801,30.389,308.045,29.31,308.045,28.122z"/>
</g>
<g>
</g>
<g>
</g>
<g>
</g>
<g>
</g>
<g>
</g>
<g>
</g>
<g>
</g>
<g>
</g>
<g>
</g>
<g>
</g>
<g>
</g>
<g>
</g>
<g>
</g>
<g>
</g>
<g>
</g>
</svg>
