<?xml version="1.0" encoding="utf-8"?>
<!-- Generator: Adobe Illustrator 14.0.0, SVG Export Plug-In . SVG Version: 6.00 Build 43363)  -->
<!DOCTYPE svg PUBLIC "-//W3C//DTD SVG 1.1//EN" "http://www.w3.org/Graphics/SVG/1.1/DTD/svg11.dtd">
<svg version="1.1" id="レイヤー_1" xmlns="http://www.w3.org/2000/svg" xmlns:xlink="http://www.w3.org/1999/xlink" x="0px"
	 y="0px" width="324.021px" height="39.664px" viewBox="-258.935 277.808 324.021 39.664"
	 enable-background="new -258.935 277.808 324.021 39.664" xml:space="preserve">
<g>
	<path fill="#FFFFFF" stroke="#808080" stroke-miterlimit="10" d="M-252.506,287.107c0,1.156-0.952,2.075-2.109,2.075
		c-1.156,0-2.108-0.919-2.108-2.075c0-1.19,0.952-2.143,2.108-2.143C-253.458,284.964-252.506,285.917-252.506,287.107z
		 M-253.084,310.303h-3.061v-15.918h3.061V310.303z"/>
	<path fill="#FFFFFF" stroke="#808080" stroke-miterlimit="10" d="M-219.343,289.556c-1.837-1.633-4.354-2.517-6.769-2.517
		c-5.748,0-10.136,4.795-10.136,10.476c0,5.611,4.354,10.407,10.068,10.407c2.517,0,4.932-0.952,6.836-2.653v3.775
		c-1.973,1.157-4.49,1.803-6.734,1.803c-7.312,0-13.367-5.815-13.367-13.23c0-7.585,6.088-13.503,13.639-13.503
		c2.245,0,4.523,0.545,6.462,1.735V289.556z"/>
	<path fill="#FFFFFF" stroke="#808080" stroke-miterlimit="10" d="M-213.946,296.97h0.102c0.748-1.87,2.312-3.061,4.354-3.061
		c0.884,0,1.769,0.306,2.517,0.782l-1.395,2.789c-0.544-0.477-1.156-0.646-1.871-0.646c-3.299,0-3.707,3.062-3.707,5.646v7.822
		h-3.061v-15.918h3.061V296.97z"/>
	<path fill="#FFFFFF" stroke="#808080" stroke-miterlimit="10" d="M-204.32,302.855c0.034,2.721,1.871,5.271,4.796,5.271
		c2.347,0,3.605-1.19,4.762-3.095l2.584,1.462c-1.496,2.755-4.285,4.354-7.38,4.354c-4.864,0-7.823-3.673-7.823-8.366
		c0-4.898,2.619-8.571,7.755-8.571c5.067,0,7.448,3.741,7.448,8.469v0.477H-204.32z M-195.239,300.542
		c-0.374-2.381-1.938-3.979-4.387-3.979c-2.381,0-4.149,1.701-4.524,3.979H-195.239z"/>
	<path fill="#FFFFFF" stroke="#808080" stroke-miterlimit="10" d="M-174.745,310.303h-3.061v-2.482h-0.068
		c-1.224,1.802-3.129,3.026-5.408,3.026c-4.864,0-7.619-4.047-7.619-8.604c0-4.354,2.891-8.333,7.517-8.333
		c2.347,0,4.251,1.225,5.51,3.129h0.068v-2.653h3.061V310.303z M-177.636,302.344c0-3.095-1.871-5.714-5.17-5.714
		c-3.163,0-5.034,2.755-5.034,5.714c0,2.993,1.803,5.782,5.034,5.782C-179.473,308.126-177.636,305.473-177.636,302.344z"/>
	<path fill="#FFFFFF" stroke="#808080" stroke-miterlimit="10" d="M-167.801,310.303h-3.061v-13.061h-1.667v-2.857h1.667v-6.088
		h3.061v6.088h2.993v2.857h-2.993V310.303z"/>
	<path fill="#FFFFFF" stroke="#808080" stroke-miterlimit="10" d="M-159.546,287.107c0,1.156-0.952,2.075-2.108,2.075
		s-2.109-0.919-2.109-2.075c0-1.19,0.953-2.143,2.109-2.143S-159.546,285.917-159.546,287.107z M-160.124,310.303h-3.062v-15.918
		h3.062V310.303z"/>
	<path fill="#FFFFFF" stroke="#808080" stroke-miterlimit="10" d="M-150.491,304.317l4.592-9.932h3.435l-8.026,16.462l-7.993-16.462
		h3.436L-150.491,304.317z"/>
	<path fill="#FFFFFF" stroke="#808080" stroke-miterlimit="10" d="M-139.882,302.855c0.034,2.721,1.871,5.271,4.796,5.271
		c2.347,0,3.605-1.19,4.762-3.095l2.585,1.462c-1.497,2.755-4.286,4.354-7.381,4.354c-4.863,0-7.822-3.673-7.822-8.366
		c0-4.898,2.618-8.571,7.754-8.571c5.068,0,7.449,3.741,7.449,8.469v0.477H-139.882z M-130.801,300.542
		c-0.374-2.381-1.938-3.979-4.388-3.979c-2.381,0-4.149,1.701-4.523,3.979H-130.801z"/>
	<path fill="#FFFFFF" stroke="#808080" stroke-miterlimit="10" d="M-103.555,289.522c-0.952-1.599-2.177-2.415-4.115-2.415
		c-2.041,0-4.286,1.395-4.286,3.64c0,2.007,1.974,3.061,3.571,3.673l1.837,0.715c3.64,1.428,6.36,3.435,6.36,7.721
		c0,4.659-3.605,7.992-8.197,7.992c-4.149,0-7.38-3.061-7.925-7.176l3.231-0.681c-0.034,2.823,2.211,4.863,4.966,4.863
		s4.728-2.312,4.728-4.999c0-2.755-2.211-3.945-4.421-4.864l-1.77-0.748c-2.925-1.259-5.577-2.925-5.577-6.496
		c0-4.149,3.673-6.633,7.55-6.633c2.857,0,5.204,1.395,6.599,3.878L-103.555,289.522z"/>
	<path fill="#FFFFFF" stroke="#808080" stroke-miterlimit="10" d="M-94.261,310.303h-3.061v-13.061h-1.666v-2.857h1.666v-6.088
		h3.061v6.088h2.993v2.857h-2.993V310.303z"/>
	<path fill="#FFFFFF" stroke="#808080" stroke-miterlimit="10" d="M-86.979,294.385v8.81c0,2.551,0.646,4.796,3.673,4.796
		s3.673-2.245,3.673-4.796v-8.81h3.062v9.149c0,4.354-2.041,7.312-6.734,7.312s-6.734-2.959-6.734-7.312v-9.149H-86.979z"/>
	<path fill="#FFFFFF" stroke="#808080" stroke-miterlimit="10" d="M-61.153,307.821h-0.067c-1.225,1.802-3.163,3.026-5.408,3.026
		c-4.897,0-7.618-4.047-7.618-8.604c0-4.354,2.891-8.333,7.482-8.333c2.381,0,4.285,1.225,5.544,3.129h0.067v-16.258h3.062v29.522
		h-3.062V307.821z M-60.982,302.344c0-3.095-1.871-5.714-5.17-5.714c-3.163,0-5.034,2.755-5.034,5.714
		c0,2.993,1.803,5.782,5.034,5.782C-62.819,308.126-60.982,305.473-60.982,302.344z"/>
	<path fill="#FFFFFF" stroke="#808080" stroke-miterlimit="10" d="M-50.746,287.107c0,1.156-0.953,2.075-2.109,2.075
		s-2.108-0.919-2.108-2.075c0-1.19,0.952-2.143,2.108-2.143S-50.746,285.917-50.746,287.107z M-51.325,310.303h-3.061v-15.918h3.061
		V310.303z"/>
	<path fill="#FFFFFF" stroke="#808080" stroke-miterlimit="10" d="M-31.78,302.378c0,4.796-3.741,8.469-8.503,8.469
		s-8.503-3.673-8.503-8.469s3.741-8.469,8.503-8.469S-31.78,297.583-31.78,302.378z M-45.725,302.378
		c0,2.993,2.415,5.544,5.442,5.544c3.026,0,5.441-2.551,5.441-5.544c0-3.027-2.415-5.544-5.441-5.544
		C-43.31,296.834-45.725,299.351-45.725,302.378z"/>
	<path fill="#FFFFFF" stroke="#808080" stroke-miterlimit="10" d="M-26.041,308.875c0,1.089-0.884,1.973-1.973,1.973
		c-1.088,0-1.973-0.884-1.973-1.973c0-1.054,0.885-1.973,1.973-1.973C-26.924,306.902-26.041,307.821-26.041,308.875z"/>
</g>
</svg>
